#!OML:ASF E:\emotionWalksFemale\Project 1\Capture day 1\Session 1\Female1.ASF
:FULLY-SPECIFIED
:DEGREES
1814
root 10.7799 15.2496 -31.0678 -3.34961 6.18546 1.98241
lowerback 5.39701 0.436452 -6.32208
upperback -2.55832 0.0610587 -0.581207
thorax -5.71971 0.256316 2.9354
lowerneck -6.12438 -7.612 -8.13835
upperneck 28.7021 -16.617 22.8511
head 13.5857 -6.08257 8.2194
rclavicle 1.28216e-014 -6.75868e-015
rhumerus -42.8035 10.8859 -91.9147
rradius 32.6969
rwrist 17.9009
rhand -8.1662 -51.3952
rfingers 7.12502
rthumb 17.7489 -80.6051
lclavicle 1.28216e-014 -6.75868e-015
lhumerus -41.2342 -0.359229 85.5446
lradius 33.477
lwrist -15.4351
lhand -3.18938 -34.2044
lfingers 7.12502
lthumb 22.5322 -5.49919
rfemur -28.2024 1.9176 21.4999
rtibia 49.1438
rfoot -15.2952 -21.1249
rtoes -6.9941
lfemur 4.64281 -19.4968 -35.2508
ltibia 22.3041
lfoot -22.067 15.1282
ltoes -11.1251
1815
root 10.7783 15.2474 -31.0216 -3.06401 6.51675 1.99919
lowerback 5.22741 0.358314 -6.22648
upperback -2.61476 -0.0298732 -0.673057
thorax -5.67233 0.205847 2.7948
lowerneck -6.57885 -7.59263 -7.85676
upperneck 28.8902 -16.6196 22.6784
head 13.7248 -6.02462 8.09081
rclavicle 3.57812e-015 -7.15625e-015
rhumerus -42.5631 10.4259 -91.8109
rradius 32.39
rwrist 18.3445
rhand -8.13338 -51.3185
rfingers 7.12502
rthumb 17.7805 -80.5256
lclavicle 3.57812e-015 -7.15625e-015
lhumerus -41.3718 -0.704693 85.5979
lradius 33.7113
lwrist -15.2737
lhand -3.16987 -34.15
lfingers 7.12502
lthumb 22.5509 -5.44698
rfemur -28.4545 2.36765 21.3161
rtibia 47.2835
rfoot -15.3441 -21.5264
rtoes -6.67094
lfemur 4.5922 -19.3756 -35.0964
ltibia 22.0867
lfoot -21.9517 14.7117
ltoes -11.9236
1816
root 10.7816 15.2414 -30.9661 -3.12127 6.37841 2.00543
lowerback 5.52186 0.445979 -6.29935
upperback -2.71003 0.0612018 -0.554895
thorax -5.95198 0.2663 2.94956
lowerneck -6.14635 -7.61598 -8.21955
upperneck 28.6104 -16.6196 22.9639
head 13.5746 -6.08378 8.27743
rclavicle 2.48481e-015 -2.62396e-014
rhumerus -42.6053 10.3604 -91.5752
rradius 32.2735
rwrist 18.4503
rhand -7.86798 -51.2755
rfingers 7.12502
rthumb 18.0359 -80.4592
lclavicle 2.48481e-015 -2.62396e-014
lhumerus -41.5801 -0.652095 85.8427
lradius 33.7633
lwrist -15.2388
lhand -3.21606 -34.5116
lfingers 7.12502
lthumb 22.5066 -5.80323
rfemur -28.325 3.05641 21.1762
rtibia 45.4283
rfoot -15.4466 -21.6779
rtoes -5.48275
lfemur 4.9239 -19.1594 -35.1651
ltibia 21.9306
lfoot -21.8288 14.8356
ltoes -12.2035
1817
root 10.7816 15.2445 -30.9086 -2.99451 6.57686 1.93176
lowerback 5.39341 0.395075 -6.27688
upperback -2.70819 0.0101962 -0.458955
thorax -5.87119 0.239932 3.04299
lowerneck -6.34085 -7.57487 -8.26493
upperneck 28.5337 -16.5423 23.0191
head 13.5789 -6.0383 8.31123
rclavicle -1.54058e-015 -5.36719e-015
rhumerus -42.4937 10.1919 -91.3378
rradius 32.132
rwrist 18.8005
rhand -7.86263 -50.8942
rfingers 7.12502
rthumb 18.041 -80.0775
lclavicle -1.54058e-015 -5.36719e-015
lhumerus -41.5092 -0.72874 86.039
lradius 33.6567
lwrist -15.1619
lhand -2.99842 -34.5796
lfingers 7.12502
lthumb 22.7155 -5.89669
rfemur -28.2715 3.65952 21.0627
rtibia 43.5635
rfoot -15.7099 -21.875
rtoes -3.87659
lfemur 5.04616 -18.9677 -34.9977
ltibia 21.7974
lfoot -21.7457 14.5406
ltoes -11.5596
1818
root 10.7815 15.2387 -30.8503 -3.11222 6.56763 1.89441
lowerback 5.41823 0.413526 -6.14332
upperback -2.65332 0.0448837 -0.472581
thorax -5.82939 0.249134 2.95033
lowerneck -5.88741 -7.56125 -8.39193
upperneck 28.2557 -16.5113 23.2621
head 13.3901 -6.06267 8.43817
rclavicle -1.54058e-014 -2.78299e-015
rhumerus -42.3682 9.85337 -91.2198
rradius 31.8178
rwrist 19.3098
rhand -8.05019 -50.7376
rfingers 7.12502
rthumb 17.8605 -79.9375
lclavicle -1.54058e-014 -2.78299e-015
lhumerus -41.5243 -0.836804 86.0622
lradius 33.5869
lwrist -15.1433
lhand -2.6225 -34.5837
lfingers 7.12502
lthumb 23.0762 -5.94549
rfemur -27.968 4.48647 20.9162
rtibia 41.7227
rfoot -15.8118 -22.1885
rtoes -3.53136
lfemur 5.49681 -18.6999 -35.0136
ltibia 21.6444
lfoot -21.8746 14.3879
ltoes -11.8159
1819
root 10.7775 15.2354 -30.7891 -3.22731 6.86209 1.88027
lowerback 5.43699 0.348054 -6.03095
upperback -2.58983 -0.0371409 -0.557831
thorax -5.76383 0.199356 2.80675
lowerneck -5.60316 -7.61778 -8.36152
upperneck 28.1938 -16.6112 23.3281
head 13.3285 -6.12129 8.4486
rclavicle 1.4387e-014 -1.90833e-014
rhumerus -42.2123 9.39097 -91.1448
rradius 31.591
rwrist 19.7042
rhand -7.88405 -51.201
rfingers 7.12502
rthumb 18.0204 -80.3862
lclavicle 1.4387e-014 -1.90833e-014
lhumerus -41.564 -1.00791 86.0326
lradius 33.6438
lwrist -15.1601
lhand -2.2933 -34.6132
lfingers 7.12502
lthumb 23.3921 -6.01481
rfemur -27.5951 5.24875 20.6888
rtibia 39.9008
rfoot -15.7023 -22.8475
rtoes -4.13311
lfemur 6.02135 -18.7351 -35.0622
ltibia 21.4462
lfoot -22.0227 14.2623
ltoes -12.5514
1820
root 10.7758 15.232 -30.7338 -2.95133 7.06488 1.96899
lowerback 5.34944 0.351189 -6.17497
upperback -2.7291 -0.0424769 -0.545523
thorax -5.86184 0.208356 2.9005
lowerneck -5.74385 -7.66897 -8.23482
upperneck 28.2743 -16.6801 23.1852
head 13.3805 -6.13382 8.35073
rclavicle -4.02539e-015 9.93923e-015
rhumerus -42.2576 9.19573 -90.9991
rradius 31.4714
rwrist 20.0912
rhand -7.54552 -50.8067
rfingers 7.12502
rthumb 18.3461 -79.9616
lclavicle -4.02539e-015 9.93923e-015
lhumerus -41.7683 -1.26645 86.2981
lradius 33.7848
lwrist -15.0965
lhand -2.30512 -34.5473
lfingers 7.12502
lthumb 23.3807 -5.94745
rfemur -27.7098 6.09627 20.2608
rtibia 38.1137
rfoot -15.4106 -23.5022
rtoes -4.9385
lfemur 6.06139 -18.8255 -35.0833
ltibia 21.2505
lfoot -22.1522 14.1189
ltoes -12.0671
